<svg width="5809" height="2051" viewBox="0 0 5809 2051" fill="none" xmlns="http://www.w3.org/2000/svg">
<path d="M5498.26 976.319L5808.96 2051C5717.38 2033.89 5625.85 2012.49 5532.6 1993.26L5357.58 1399.37L5177.71 1944.18C5089.42 1924.96 5002.69 1918.48 4914.4 1903.55L5230.05 963.503L4943.83 0H5208.81L5369.06 538.334L5540.79 0H5808.96L5498.26 976.319ZM4734.53 0H4494.12V1862.99C4572.61 1869.4 4654.38 1873.63 4734.53 1886.44V0ZM4286.39 1841.59C4067.27 1822.36 3848.11 1805.32 3624.09 1798.85V0H3869.35V1495.49C4010.03 1499.79 4150.66 1514.72 4286.39 1523.24V1841.59ZM3362.4 728.523V1048.99H3027.18V1777.51H2785.11V0H3471.98V320.463H3027.18V728.523H3362.4ZM2372.98 320.463V1794.62C2291.21 1794.62 2207.82 1794.62 2127.67 1798.85V320.463H1874.17V0H2628.1V320.463H2372.98ZM1609.24 1066.03C1501.33 1066.03 1373.74 1066.03 1282.16 1072.5V1548.94C1426.08 1536.06 1570 1521.12 1715.54 1514.72V1822.36L1036.86 1892.92V0H1715.54V320.463H1282.16V751.976C1377.03 751.976 1522.57 745.568 1609.24 745.568V1066.03ZM250.213 886.607V2006.08C161.92 2018.96 83.388 2033.89 0 2051V0H233.879L552.764 1164.39V0H798.072V1918.48C711.398 1937.77 623.105 1944.18 529.857 1961.22L250.213 886.607Z" fill="#E50914"/>
</svg>
